# xmcd
#
# Track frame offsets:
#	150
#	15775
#	26736
#	35888
#	47681
#
# Disc length: 762 seconds
# Revision: 0
# Processed by: cddbd v1.5.2PL0 Copyright (c) Steve Scherf et al.
# Submitted via: dBpowerAMP V12.0
#
DISCID=3402f805
DTITLE=Reno Station - Honky Tonkin
DYEAR=2005
DGENRE=Country
TTITLE0=Whole Lot of Leaving
TTITLE1=A-11
TTITLE2=Guitars and Cadillacs
TTITLE3=Slip Away
TTITLE4=Can't Be Satisfied
EXTD=
EXTT0=
EXTT1=
EXTT2=
EXTT3=
EXTT4=
PLAYORDER=
